<svg width="84" height="44" viewBox="0 0 84 44" fill="none" xmlns="http://www.w3.org/2000/svg">
<path d="M6.648 18.24C9.72 18.24 11.928 17.064 11.928 14.832C11.928 12.912 10.56 12.048 8.016 11.688L5.112 11.28C3.144 10.992 2.52 10.56 2.52 9.336C2.52 7.92 3.552 7.32 6.048 7.32C9.072 7.32 10.008 8.28 10.008 10.056V10.176H11.712V10.128C11.712 7.344 9.504 5.904 6.096 5.904C2.832 5.904 0.84 7.224 0.84 9.312C0.84 11.28 2.208 12.12 4.368 12.408L7.536 12.864C9.504 13.176 10.248 13.584 10.248 14.832C10.248 16.2 9.336 16.824 6.672 16.824C3.768 16.824 2.592 16.128 2.592 14.136V13.992H0.888V14.04C0.888 16.776 3 18.24 6.648 18.24ZM18.8706 18L21.9906 10.248L22.9266 7.608H23.0466L23.9826 10.248L27.0546 18H29.1906L33.0306 6.144H31.2786L28.7346 13.992L28.1586 16.488H28.0146L27.1986 13.848L24.1026 6.144H21.9186L18.7986 13.848L17.9826 16.512H17.8386L17.2386 13.992L14.7186 6.144H12.9666L16.7586 18H18.8706ZM40.3378 18.24C43.6498 18.24 46.0978 16.536 46.0978 14.064V13.896H44.3938V14.064C44.3938 15.792 43.0978 16.824 40.3138 16.824C37.1698 16.824 35.8018 15.216 35.7058 12.552H46.1458C46.2178 12.24 46.2658 11.88 46.2658 11.448C46.2658 7.92 43.7938 5.904 40.3138 5.904C36.4978 5.904 34.0978 8.472 34.0978 12.072C34.0978 15.84 36.5218 18.24 40.3378 18.24ZM40.2898 7.32C43.0738 7.32 44.6578 8.64 44.6578 11.136C44.6578 11.256 44.6578 11.376 44.6578 11.496H35.7058C35.8258 8.904 37.2178 7.32 40.2898 7.32ZM53.6379 18.24C56.2539 18.24 58.1739 16.872 58.7499 14.496H58.8459V18H60.4059V1.92H58.7019V9.456H58.5819C58.0539 7.416 56.3019 5.904 53.4939 5.904C49.8459 5.904 47.7339 8.472 47.7339 12.072C47.7339 15.672 49.8459 18.24 53.6379 18.24ZM49.4619 12.072C49.4619 8.64 51.3099 7.488 54.0219 7.488C56.9499 7.488 58.7019 9.12 58.7019 12.048V12.264C58.7019 15.072 56.8539 16.68 54.0699 16.68C51.2859 16.68 49.4619 15.504 49.4619 12.072ZM64.8281 22.08C66.7961 22.08 67.9001 21.48 68.7641 19.656L75.1961 6.144H73.3241L70.0361 13.176L68.7641 16.104H68.6201L67.3001 13.2L63.8201 6.144H61.9481L67.8281 17.976L67.2521 19.176C66.7961 20.16 66.3401 20.52 65.1401 20.52H63.3401V22.08H64.8281ZM4.728 38.24C7.488 38.24 9.576 36.992 10.272 34.808H10.392V38H11.928V30.584C11.928 27.968 10.392 25.904 6.792 25.904C3.144 25.904 1.08 27.944 1.08 30.44V30.536H2.784V30.44C2.784 28.352 4.128 27.44 6.672 27.44C9.264 27.44 10.272 28.352 10.272 30.656V31.568L4.632 32.192C2.424 32.432 0.816 33.272 0.816 35.216C0.816 37.136 2.4 38.24 4.728 38.24ZM2.52 35.096C2.52 33.872 3.384 33.44 5.16 33.272L10.272 32.696V32.792C10.272 35.648 7.992 36.92 5.112 36.92C3.312 36.92 2.52 36.296 2.52 35.096ZM16.4331 38V31.568C16.4331 28.904 17.4891 27.392 19.8891 27.392C21.9531 27.392 22.7931 28.376 22.7931 30.392V31.304H24.4971V30.128C24.4971 27.92 23.2971 25.904 20.5611 25.904C18.0891 25.904 16.7451 27.488 16.3851 29.384H16.2651V26.144H14.7291V38H16.4331ZM32.1353 38.24C35.4473 38.24 38.0393 36.272 38.0393 33.416V33.224H36.3593V33.368C36.3593 35.48 34.8233 36.68 32.1113 36.68C28.9433 36.68 27.5753 34.976 27.5753 32.072C27.5753 29.168 28.9433 27.464 32.1113 27.464C34.8233 27.464 36.3593 28.664 36.3593 30.776V30.92H38.0393V30.728C38.0393 27.872 35.4473 25.904 32.1353 25.904C28.3433 25.904 25.8713 28.472 25.8713 32.072C25.8713 35.672 28.3433 38.24 32.1353 38.24ZM42.0268 38V32.432C42.0268 29.48 43.2508 27.464 46.4188 27.464C49.0828 27.464 50.3548 28.616 50.3548 31.328V38H52.0588V31.112C52.0588 28.112 50.4028 25.904 47.0908 25.904C44.0668 25.904 42.5308 27.776 42.1468 29.768H42.0268V21.92H40.3228V38H42.0268ZM60.5175 38.24C63.8295 38.24 66.2775 36.536 66.2775 34.064V33.896H64.5735V34.064C64.5735 35.792 63.2775 36.824 60.4935 36.824C57.3495 36.824 55.9815 35.216 55.8855 32.552H66.3255C66.3975 32.24 66.4455 31.88 66.4455 31.448C66.4455 27.92 63.9735 25.904 60.4935 25.904C56.6775 25.904 54.2775 28.472 54.2775 32.072C54.2775 35.84 56.7015 38.24 60.5175 38.24ZM60.4695 27.32C63.2535 27.32 64.8375 28.64 64.8375 31.136C64.8375 31.256 64.8375 31.376 64.8375 31.496H55.8855C56.0055 28.904 57.3975 27.32 60.4695 27.32ZM70.4096 24.632V21.92H68.7056V24.632H70.4096ZM70.4096 38V26.144H68.7056V38H70.4096Z" fill="#111111"/>
</svg>
